<svg id="Layer_1" data-name="Layer 1" xmlns="http://www.w3.org/2000/svg" viewBox="0 0 735.86 767.34"><defs><style>.cls-1{fill:#fff;stroke:#1d1d1b;}.cls-1,.cls-2,.cls-3,.cls-4,.cls-5,.cls-7,.cls-8{stroke-miterlimit:10;}.cls-1,.cls-4,.cls-5{stroke-width:6px;}.cls-2,.cls-5,.cls-8{fill:#312783;stroke:#312783;}.cls-3,.cls-4,.cls-7{fill:#009640;stroke:#009640;}.cls-6,.cls-7,.cls-8{font-size:48px;font-family:SourceSansPro-Regular, Source Sans Pro;}.cls-6{fill:#1d1d1b;}</style></defs><title>D2Q9_colored</title><rect class="cls-1" x="45.5" y="58.34" width="646.5" height="646.5"/><polygon class="cls-2" points="691.88 60.12 630.66 85.5 666.5 121.34 691.88 60.12"/><polygon class="cls-2" points="45.5 704.56 106.72 679.18 70.88 643.34 45.5 704.56"/><polygon class="cls-2" points="45.5 58.34 70.88 119.56 106.72 83.72 45.5 58.34"/><polygon class="cls-2" points="691.72 704.56 666.34 643.34 630.5 679.18 691.72 704.56"/><polygon class="cls-3" points="369.5 704.57 396.5 643.34 342.5 643.34 369.5 704.57"/><polygon class="cls-3" points="369.5 58.34 342.5 119.57 396.5 119.57 369.5 58.34"/><polygon class="cls-3" points="691.73 382.34 630.5 355.34 630.5 409.34 691.73 382.34"/><polygon class="cls-3" points="45.5 382.34 106.73 409.34 106.73 355.34 45.5 382.34"/><line class="cls-4" x1="369.57" y1="58.34" x2="369.5" y2="708.57"/><line class="cls-4" x1="45.5" y1="382.34" x2="695.73" y2="382.41"/><line class="cls-5" x1="45.5" y1="58.34" x2="693.5" y2="706.34"/><line class="cls-5" x1="45.5" y1="706.34" x2="693.5" y2="58.34"/><text class="cls-6" transform="translate(378.5 445.34)">0</text><text class="cls-7" transform="translate(711.5 400.34)">1</text><text class="cls-7" transform="translate(0.5 400.34)">3</text><text class="cls-7" transform="translate(360.5 40.34)">2</text><text class="cls-7" transform="translate(360.5 751.34)">4</text><text class="cls-8" transform="translate(702.5 40.34)">5</text><text class="cls-8" transform="translate(9.5 40.34)">6</text><text class="cls-8" transform="translate(0.5 751.34)">7</text><text class="cls-8" transform="translate(711.5 751.34)">8</text></svg>